<svg version="1.1" xmlns="http://www.w3.org/2000/svg" xmlns:xlink="http://www.w3.org/1999/xlink" x="0px" y="0px"
	 viewBox="-70 370 470 54" style="enable-background:new -70 370 470 54;" xml:space="preserve">
<style type="text/css">
	.st0{}
</style>
<path style="fill:#ffffff;" d="M-61.1,370h44.8c0.1,18,0.2,36,0,54h-52.3c-0.3-2.3-0.6-4.7-0.6-7c0.1-15.4,0-30.9,0-46.3
	C-66.5,370.5-63.8,370.3-61.1,370 M-66,373.5c0,9.5,0,19,0,28.6c4-3.1,8-6.3,12.1-9.3c9.2,8.8,17.7,18.4,26.7,27.5
	c2.6,0,5.1,0,7.7,0c0-9.5,0-19.1,0-28.6c-4.2,3-7.8,6.8-12.5,9.1c-9.1-8.8-17.6-18.3-26.5-27.3C-61,373.5-63.5,373.5-66,373.5
	 M-53.8,373.5c6.9,7.1,13.7,14.3,20.6,21.4c0-7.1,0-14.3,0-21.4C-40.1,373.5-47,373.5-53.8,373.5 M-30,373.5c0,7.3,0,14.7,0,22
	c3.5-2.7,7-5.5,10.5-8.2c0-4.6,0-9.2,0-13.9C-23,373.5-26.5,373.5-30,373.5 M-66,406.3c0,4.6,0,9.3,0,13.9c3.5,0,7,0,10.5,0
	c0-7.4,0-14.7,0-22.1C-59,400.9-62.5,403.6-66,406.3 M-52.3,398.9c0,7.1,0,14.3,0,21.4c6.8,0,13.6,0,20.3,0
	C-38.6,413-45.5,406.1-52.3,398.9z"/>
<path style="fill:#ffffff;" d="M278.3,370h1.4c0,18,0,36,0,54h-1.4C278.3,406,278.3,388,278.3,370z"/>
<path style="fill:#ffffff;" d="M13,376.3c1.6,0,3.1,0,4.6,0c8.4,10.8,17,21.5,25.3,32.4c0.6-10.8,0.2-21.6,0.3-32.4c1.6,0,3.2,0,4.8,0
	c0.2,13.8-0.3,27.5-0.3,41.3c-1,0-2.9,0-3.8,0c-8.7-11.1-17.5-22.2-26.2-33.4c0,11.1,0,22.2,0,33.4c-1.6,0-3.2,0-4.8,0
	C13,403.8,13,390,13,376.3z"/>
<path style="fill:#ffffff;" d="M79.2,376.2c7-1.6,15.1,0.1,20.1,5.5c8.1,8,8,22.6-0.1,30.5c-7.2,7.4-20.1,8-28.1,1.6
	c-8.9-7-10.3-21.2-3.4-30.1C70.5,379.9,74.7,377.3,79.2,376.2 M80.4,380.6c-8.8,1.9-13.7,11.9-11.5,20.3c1.6,8.8,11.4,14.9,20,12.1
	c9.5-2.5,13.9-14.3,10-23C96.2,382.9,87.9,378.6,80.4,380.6z"/>
<path style="fill:#ffffff;" d="M114.8,376.5c1.8,0,3.7,0,5.5,0c4.8,11.6,9.7,23.2,14.4,34.9c4.9-11.6,9.6-23.2,14.4-34.9c1.8,0,3.5,0,5.3,0
	c-5.9,13.9-11.8,27.7-17.6,41.5c-1.4,0-2.9-0.1-4.4-0.1C126.7,404,120.6,390.3,114.8,376.5z"/>
<path style="fill:#ffffff;" d="M172.8,376.5c9.9,0.1,19.8-0.2,29.8-0.3c0,1.5,0,3,0,4.5c-8.3,0-16.7,0-25,0c0,4.6,0,9.2,0,13.8
	c7.5,0,15,0,22.5,0c0,1.5,0,3,0,4.5c-7.5,0-15,0-22.5,0c-0.1,4.7,0.1,9.3,0.3,14c8.3,0,16.6,0,24.9,0c0.1,1.5,0.2,3,0.4,4.5
	c-10.1,0-20.2,0-30.3,0C172.8,403.8,172.8,390.2,172.8,376.5z"/>
<path style="fill:#ffffff;" d="M224.5,376.3c1.7,0,3.3,0,5,0c0,12.3,0,24.5,0,36.7c9.2,0,18.3,0,27.5,0c0,1.5,0,3,0,4.5c-10.7,0-21.5,0-32.2,0
	C224.2,403.8,224.6,390,224.5,376.3z"/>
<path style="fill:#ffffff;" d="M292.3,381.3c4.7,0.5,4.1,6.4,5.7,9.7c1.1-3.3,2.1-6.6,3.3-9.9c3.5,2,3.4,6.6,4.8,9.9c1.7-3.3,1.1-9.1,5.7-9.7
	c-1.4,4.6-2.7,9.3-4.8,13.7c-0.4,0-1.4,0-1.8,0c-1.4-2.8-2.2-5.9-3.2-8.9c-1,3-1.8,6-3.2,8.8c-0.5,0-1.4,0-1.8,0
	C295,390.6,293.8,385.9,292.3,381.3z"/>
<path style="fill:#ffffff;" d="M313.8,381.8c3.3,0,6.5,0,9.7,0c0,0.6,0,1.7,0,2.3c-2.4,0-4.8,0-7.3,0c0,0.8,0,2.4,0,3.2c2.2,0,4.4,0,6.5,0
	c0,0.6,0,1.7-0.1,2.2c-2.2,0-4.3,0-6.5,0c0,1.1,0,2.2,0,3.3c2.5,0,5,0,7.5,0c0,0.6,0,1.7,0,2.3c-3.3,0-6.7,0-10,0
	C313.8,390.6,313.8,386.2,313.8,381.8z"/>
<path style="fill:#ffffff;" d="M328.2,382c2.4-0.9,4.8,0.3,7.1,0.8c-0.3,0.5-0.9,1.6-1.1,2.1c-2-0.3-4.6-2-6.1,0.1c1.4,2.5,5,2.1,6.9,4.1
	c1.2,1.7,0.6,4.4-1.4,5.4c-2.8,1.4-5.9,0.1-8.5-1.1c0.3-0.5,0.9-1.5,1.2-2c2.4,1.1,5,1.6,7.6,0.7c-2-2.3-5.1-2.8-7.6-4.4
	C325.1,385.8,325.9,382.8,328.2,382z"/>
<path style="fill:#ffffff;" d="M336.8,381.8c3.6,0,7.2,0,10.8,0c0,0.6,0,1.9,0,2.5c-1.4,0-2.8,0-4.3,0c0,3.6,0,7.2,0,10.7c-0.6,0-1.9,0-2.5,0
	c0-3.6,0-7.2,0-10.7c-1.3,0-2.7,0-4,0C336.8,383.6,336.8,382.4,336.8,381.8z"/>
<path style="fill:#ffffff;" d="M302.3,398.8c0.6,0,1.9,0,2.5,0c0,4.6,0.1,9.3-0.1,13.9c-4-2-6-6.3-8.8-9.6c0,3,0,6,0,9c-0.6,0-1.7,0-2.2,0
	c0-4.6-0.1-9.3,0.2-13.9c3.9,2,5.9,6,8.6,9.2C302.3,404.4,302.3,401.6,302.3,398.8z"/>
<path style="fill:#ffffff;" d="M342.3,398.7c0.6,0,1.9,0,2.5,0c0,4.4,0,8.8,0,13.3c-0.6,0-1.9,0-2.5,0c0-1.8,0-3.7,0-5.5c-1.9,0-3.8,0-5.8,0
	c0,1.8,0,3.7,0,5.5c-0.6,0-1.9,0-2.5,0c0-4.4,0-8.8,0-13.3c0.6,0,1.9,0,2.5,0c0,1.8,0,3.7,0,5.5c1.9,0,3.8,0,5.7,0
	C342.2,402.4,342.3,400.6,342.3,398.7z"/>
<path style="fill:#ffffff;" d="M311.7,400.5c0.4-1.3,1.8-1.6,2.8-2.2c2.1,4.7,4.3,9.4,6.1,14.3c-2.3-0.2-3.5-1.9-4.5-3.7c-1.7,0-3.4,0-5.1,0
	c-1,1.8-2.2,3.5-4.4,3.7C308.2,408.4,309.8,404.4,311.7,400.5 M312.8,402.8c-0.2,0.9-0.7,2.8-0.9,3.8c1.2,0,2.4,0,3.7-0.1
	c-0.6-1.4-1.2-2.8-1.8-4.1C313.5,402.4,313,402.6,312.8,402.8z"/>
<path style="fill:#ffffff;" d="M323.4,399.5c2.4-1.6,5.4-0.2,7.9,0.4c-0.3,0.5-0.9,1.5-1.2,2.1c-2.1-0.7-4.3-0.9-6.4-0.3
	c0.3,0.5,1.1,1.4,1.4,1.9c2.6,0.9,7.2,1.7,6.3,5.5c-1.1,4.7-7.3,3.2-10.3,1.4c0.3-0.5,1-1.5,1.3-1.9c2.2,0.9,4.7,2,7,0.7
	c-1.2-2.9-4.9-2.6-7.1-4.3C321.4,403,321.6,400.6,323.4,399.5z"/>
<path style="fill:#ffffff;" d="M346.6,398.3c0.7,0.2,2,0.6,2.7,0.8c1.8,2.8,2.6,6.1,3.9,9.2c2-3.4,1.8-9.4,6.6-10.1c-1.6,4.6-3.6,9.1-5.4,13.6
	c-0.6,0-1.7,0.1-2.3,0.2C350.3,407.5,348.3,403,346.6,398.3z"/>
<path style="fill:#ffffff;" d="M361.8,398.8c0.6,0,1.9,0,2.5,0c0,4.4,0,8.8,0,13.3c-0.6,0-1.9,0-2.5,0C361.8,407.6,361.8,403.2,361.8,398.8z"
	/>
<path style="fill:#ffffff;" d="M367.5,398.8c0.6,0,1.9,0,2.5,0c0,3.7,0,7.3,0,11c2.3,0,4.5,0,6.7,0c0,0.6,0,1.7,0,2.3c-3.1,0-6.2,0-9.3,0
	C367.5,407.6,367.5,403.2,367.5,398.8z"/>
<path style="fill:#ffffff;" d="M378.8,398.8c0.6,0,1.9,0,2.5,0c0,3.7,0,7.3,0,11c2.3,0,4.5,0,6.8,0c0,0.6,0,1.7,0,2.3c-3.1,0-6.2,0-9.3,0
	C378.8,407.6,378.8,403.2,378.8,398.8z"/>
<path style="fill:#ffffff;" d="M390.3,398.8c3.3,0,6.5,0,9.8,0v2.3c-2.4,0-4.8,0-7.3,0c0,0.8,0,2.4,0,3.3c2.2,0,4.3,0,6.5,0c0,0.6,0,1.7,0,2.2
	c-2.2,0-4.3,0-6.5,0c0,1.1,0,2.1,0,3.2c2.4,0,4.8,0,7.3,0v2.3c-3.3,0-6.5,0-9.8,0C390.3,407.6,390.3,403.2,390.3,398.8z"/>
</svg>
