<?xml version="1.0" standalone="no"?>
<!DOCTYPE svg PUBLIC "-//W3C//DTD SVG 20010904//EN"
 "http://www.w3.org/TR/2001/REC-SVG-20010904/DTD/svg10.dtd">
<svg version="1.0" xmlns="http://www.w3.org/2000/svg"
 width="700.000000pt" height="700.000000pt" viewBox="0 0 700.000000 700.000000"
 preserveAspectRatio="xMidYMid meet">
<metadata>
Created by potrace 1.11, written by Peter Selinger 2001-2013
</metadata>
<g transform="translate(0.000000,700.000000) scale(0.100000,-0.100000)"
fill="#000000" stroke="none">
<path d="M0 3500 l0 -3500 3500 0 3500 0 0 3500 0 3500 -3500 0 -3500 0 0
-3500z m3648 3160 l3022 0 0 -3165 0 -3165 -3165 0 -3165 0 0 3172 0 3171 143
-6 c78 -4 1502 -7 3165 -7z"/>
<path d="M6168 6264 c-4 -3 -262 -9 -575 -12 l-568 -7 -3 -1284 c-2 -1078 0
-1282 12 -1278 15 6 213 157 686 522 179 138 378 291 443 340 l117 89 0 818 0
818 -53 0 c-30 0 -56 -3 -59 -6z"/>
<path d="M720 4574 l0 -1676 38 28 c20 15 228 175 462 354 373 285 666 506
879 663 l64 46 151 -142 c241 -227 1021 -1011 1535 -1542 261 -270 705 -725
985 -1012 l511 -523 463 0 462 0 0 1670 c0 919 -3 1670 -6 1670 -13 0 -198
-141 -484 -370 -162 -130 -340 -270 -396 -312 -145 -110 -372 -257 -497 -323
l-108 -57 -62 58 c-322 303 -980 965 -1916 1929 -289 297 -676 692 -860 878
l-335 337 -443 0 -443 0 0 -1676z"/>
<path d="M2307 6116 c70 -73 315 -324 543 -557 1407 -1437 1773 -1809 1781
-1809 5 0 8 524 7 1248 l-3 1247 -1228 3 -1229 2 129 -134z"/>
<path d="M1678 3128 c-161 -123 -443 -335 -625 -473 l-332 -250 0 -817 -1
-818 630 0 630 0 0 1290 c0 710 -2 1290 -4 1290 -2 0 -136 -100 -298 -222z"/>
<path d="M2360 2015 l0 -1245 1211 0 1212 0 -53 58 c-252 271 -475 502 -1440
1492 -421 432 -799 820 -839 863 -41 42 -78 77 -83 77 -4 0 -8 -560 -8 -1245z"/>
</g>
</svg>
